<?xml version="1.0" standalone="no"?>
<!DOCTYPE svg PUBLIC "-//W3C//DTD SVG 20010904//EN"
 "http://www.w3.org/TR/2001/REC-SVG-20010904/DTD/svg10.dtd">
<svg version="1.0" xmlns="http://www.w3.org/2000/svg"
 width="608.000000pt" height="241.000000pt" viewBox="0 0 608.000000 241.000000"
 preserveAspectRatio="xMidYMid meet">
<metadata>
Created by potrace 1.11, written by Peter Selinger 2001-2013
</metadata>
<g transform="translate(0.000000,241.000000) scale(0.100000,-0.100000)"
fill="#000000" stroke="none">
<path d="M4288 1420 c-119 -20 -229 -104 -284 -215 -26 -54 -29 -70 -29 -160
0 -93 2 -105 33 -167 67 -137 187 -212 342 -212 109 0 179 27 255 95 173 159
165 436 -17 579 -83 66 -199 97 -300 80z m128 -288 c53 -42 60 -118 15 -162
-51 -52 -111 -52 -162 0 -21 21 -29 38 -29 65 0 72 41 115 110 115 28 0 53 -7
66 -18z"/>
<path d="M5166 1419 c-60 -14 -153 -68 -192 -112 -81 -89 -120 -230 -94 -338
18 -75 44 -123 98 -181 61 -65 114 -95 202 -114 208 -43 411 97 449 313 9 49
9 76 -3 131 -18 87 -36 122 -94 184 -98 105 -233 148 -366 117z m167 -299 c39
-44 38 -110 -2 -151 -60 -59 -171 -26 -187 57 -21 110 114 178 189 94z"/>
<path d="M1726 1409 c-60 -14 -153 -68 -192 -112 -81 -89 -120 -230 -94 -338
18 -75 44 -123 98 -181 61 -65 114 -95 202 -114 208 -43 411 97 449 313 9 49
9 76 -3 131 -18 87 -36 122 -94 184 -98 105 -233 148 -366 117z m167 -299 c39
-44 38 -110 -2 -151 -60 -59 -171 -26 -187 57 -21 110 114 178 189 94z"/>
<path d="M2583 1402 c-100 -36 -180 -109 -225 -208 -33 -70 -33 -236 0 -307
33 -72 121 -159 195 -193 54 -25 73 -29 152 -29 124 1 189 27 271 109 82 82
108 147 109 271 0 79 -4 98 -29 152 -34 75 -122 163 -193 195 -68 30 -209 35
-280 10z m203 -286 c24 -24 34 -43 34 -65 0 -68 -53 -121 -121 -121 -47 0 -99
56 -99 107 1 71 42 112 114 113 30 0 45 -7 72 -34z"/>
<path d="M695 1343 c14 -38 74 -201 133 -363 l108 -295 90 -3 89 -3 130 357
c72 196 132 360 133 365 2 5 -38 9 -90 9 l-93 0 -80 -226 c-44 -124 -83 -227
-86 -230 -3 -2 -30 63 -59 144 -29 81 -66 184 -82 230 l-30 82 -94 0 -94 0 25
-67z"/>
<path d="M3220 1046 l0 -366 133 0 c72 0 161 5 195 10 126 21 212 82 264 188
31 62 33 73 33 172 0 93 -3 112 -27 162 -35 75 -103 141 -176 170 -50 20 -78
23 -239 26 l-183 4 0 -366z m326 189 c87 -26 124 -80 124 -185 0 -89 -19 -132
-73 -168 -33 -22 -54 -28 -119 -31 l-78 -3 0 201 0 201 48 0 c27 0 71 -7 98
-15z"/>
</g>
</svg>
